<?xml version="1.0" encoding="UTF-8"?>
<svg version="1.1" xmlns="http://www.w3.org/2000/svg" width="48" height="48">
<path d="M0 0 C1.32 0 2.64 0 4 0 C4 0.99 4 1.98 4 3 C9.94 3 15.88 3 22 3 C22.33 2.01 22.66 1.02 23 0 C23.99 0 24.98 0 26 0 C26.1546875 1.85625 26.1546875 1.85625 26.3125 3.75 C27.14944291 11.13137151 28.47989066 18.61696233 32.1875 25.125 C34.62601321 29.64425228 34.82522065 33.97289051 34 39 C31.60987774 44.05602786 29.15344425 46.00695526 24 48 C20.34669732 48.45300074 16.74003058 48.46445059 13.0625 48.4375 C12.09892578 48.45748047 11.13535156 48.47746094 10.14257812 48.49804688 C3.87228285 48.49376096 0.11528209 47.67618273 -5 44 C-8.38098794 40.29181968 -8.56007732 36.47528349 -8.42578125 31.640625 C-7.96697238 28.79516813 -7.12444125 27.04567339 -5.6875 24.5625 C-1.46967303 17.12139048 -1.05475109 8.35225661 0 0 Z " fill="#BC966C" transform="translate(11,0)"/>
<path d="M0 0 C3.31642744 1.61569542 5.11271749 3.3035441 7.4375 6.1875 C7.83165619 9.1642617 7.96578556 11.49864578 7.8125 14.4375 C7.79123047 15.53578125 7.79123047 15.53578125 7.76953125 16.65625 C7.62098214 22.00401786 7.62098214 22.00401786 6.4375 23.1875 C4.10589945 23.28659302 1.77120058 23.31720504 -0.5625 23.3125 C-1.84125 23.31507812 -3.12 23.31765625 -4.4375 23.3203125 C-7.5625 23.1875 -7.5625 23.1875 -8.5625 22.1875 C-9.78743366 8.74424073 -9.78743366 8.74424073 -7.3984375 3.7578125 C-5.16530532 1.36435288 -3.27368266 0.23953776 0 0 Z " fill="#BDBBBE" transform="translate(24.5625,17.8125)"/>
<path d="M0 0 C3.33335421 1.5000094 5.23854086 3.26491933 7.5 6.125 C7.3125 8.4375 7.3125 8.4375 6.5 10.125 C5.860625 10.24875 5.22125 10.3725 4.5625 10.5 C3.881875 10.70625 3.20125 10.9125 2.5 11.125 C2.17 11.785 1.84 12.445 1.5 13.125 C0.18 13.125 -1.14 13.125 -2.5 13.125 C-2.83 12.465 -3.16 11.805 -3.5 11.125 C-5.14363134 10.40340576 -6.81050386 9.73148579 -8.5 9.125 C-8.15657251 6.03415263 -7.24044345 4.80055431 -5.25 2.3125 C-2.5 0.125 -2.5 0.125 0 0 Z " fill="#99979D" transform="translate(24.5,17.875)"/>
<path d="M0 0 C3 0.25 3 0.25 5 2.25 C5.1953125 4.6328125 5.1953125 4.6328125 5.125 7.375 C5.10695313 8.28507812 5.08890625 9.19515625 5.0703125 10.1328125 C5.04710937 10.83148438 5.02390625 11.53015625 5 12.25 C3.906875 12.064375 2.81375 11.87875 1.6875 11.6875 C-1.93624133 10.9921932 -1.93624133 10.9921932 -5 12.25 C-5.05395478 10.62536158 -5.09277195 9.00021459 -5.125 7.375 C-5.14820312 6.47007813 -5.17140625 5.56515625 -5.1953125 4.6328125 C-4.88519731 0.84940724 -3.66944414 0.30578701 0 0 Z " fill="#AC8B68" transform="translate(24,7.75)"/>
<path d="M0 0 C2.4375 0.1875 2.4375 0.1875 5 1 C6.3125 3.0625 6.3125 3.0625 7 5 C3.33694766 5.74926071 0.57644848 6.2380014 -3 5 C-1.125 1.125 -1.125 1.125 0 0 Z " fill="#BDBCC1" transform="translate(22,18)"/>
<path d="M0 0 C1.32 0 2.64 0 4 0 C4 0.99 4 1.98 4 3 C4.66 3.33 5.32 3.66 6 4 C4.02 5.32 2.04 6.64 0 8 C0 5.36 0 2.72 0 0 Z " fill="#797880" transform="translate(11,0)"/>
<path d="M0 0 C0.99 0 1.98 0 3 0 C3 2.64 3 5.28 3 8 C1.02 6.68 -0.96 5.36 -3 4 C-2.34 3.67 -1.68 3.34 -1 3 C-0.67 2.01 -0.34 1.02 0 0 Z " fill="#7D7D85" transform="translate(34,0)"/>
</svg>
